<?xml version="1.0" encoding="UTF-8"?>
<svg xmlns="http://www.w3.org/2000/svg" version="1.1" xmlns:xlink="http://www.w3.org/1999/xlink" viewBox="0 0 353.4 391.3">
  <defs>
    <style>
      .cls-1 {
        fill: url(#linear-gradient-2);
      }

      .cls-2 {
        fill: #fff;
      }

      .cls-3 {
        opacity: .3;
      }

      .cls-3, .cls-4 {
        fill: #2563eb;
        isolation: isolate;
      }

      .cls-5 {
        fill: url(#linear-gradient-4);
      }

      .cls-6 {
        fill: #f28820;
      }

      .cls-7 {
        fill: url(#linear-gradient-3);
      }

      .cls-4 {
        opacity: .4;
      }

      .cls-8 {
        fill: url(#linear-gradient);
      }
    </style>
    <linearGradient id="linear-gradient" x1="18.2" y1="143.9" x2="229.6" y2="355.3" gradientTransform="translate(0 394) scale(1 -1)" gradientUnits="userSpaceOnUse">
      <stop offset="0" stop-color="#006d97"/>
      <stop offset=".2" stop-color="#1b87b2"/>
      <stop offset=".6" stop-color="#3ca7d3"/>
      <stop offset=".8" stop-color="#51bae7"/>
      <stop offset="1" stop-color="#59c2ef"/>
    </linearGradient>
    <linearGradient id="linear-gradient-2" x1="0" y1="197.7" x2="353.4" y2="197.7" gradientTransform="translate(0 394) scale(1 -1)" gradientUnits="userSpaceOnUse">
      <stop offset="0" stop-color="#1c1556"/>
      <stop offset="0" stop-color="#1c1556"/>
      <stop offset=".7" stop-color="#224cc0"/>
      <stop offset="1" stop-color="#2563eb"/>
    </linearGradient>
    <linearGradient id="linear-gradient-3" x1="0" y1="215.1" x2="284.6" y2="215.1" gradientTransform="translate(0 394) scale(1 -1)" gradientUnits="userSpaceOnUse">
      <stop offset="0" stop-color="#aab2c2"/>
      <stop offset=".6" stop-color="#e6edf8"/>
    </linearGradient>
    <linearGradient id="linear-gradient-4" x1="210" y1="508" x2="210" y2="508" gradientTransform="matrix(1,0,0,1,0,0)" xlink:href="#linear-gradient-2"/>
  </defs>
  <!-- Generator: Adobe Illustrator 28.7.4, SVG Export Plug-In . SVG Version: 1.2.0 Build 166)  -->
  <g>
    <g id="Layer_2">
      <g id="Layer_1-2">
        <g>
          <path class="cls-8" d="M179.6,153c-23.8,28.1-57,64.1-100.6,102.9,24.6-2.1,49.2-4.3,73.8-6.4-9.6,15.2-23.3,33.3-42.7,50.6-8,7.2-15.9,13.3-23.4,18.5,0,0,0-.1-.1-.2C45.5,267.9,16.5,203.5,3.8,122.1c21-14.4,46-29.5,75-43.7,36.4-17.8,70.4-29.8,99.4-38,10.7,4,21.3,8.1,32,12.1.4-4.9.2-11.9-2.4-19.8-5.8-17.9-19.7-27.1-24.4-29.8,8,3.2,22.3,10.2,34.3,24.7,6.9,7.6,10.5,15,12.5,21.1,10.2,32-10.6,72.9-50.8,104.3Z"/>
          <path class="cls-6" d="M203.1,16.9c-.8-.7-1.6-1.4-2.3-2,.8.7,1.6,1.4,2.3,2Z"/>
          <path class="cls-3" d="M66.4,256.4c-.2.1-.3.3-.5.4h0c.2-.1.4-.3.5-.4Z"/>
          <path class="cls-1" d="M353.4,121.1c-5.1,31.8-16,75.6-40.9,122.5-42.5,80.2-102.6,126.1-135.6,147.7-20.4-14.2-28.1-19.1-48.5-33.3-11.1,1.2-22.8,2.1-35,2.6C58.8,362,27.4,359.7,0,355.7c15.2.2,32.5-.4,51.4-2.6,21.4-2.5,40.4-6.6,56.5-11,15.1-5.5,32.3-12.9,50.5-23.1.6-.4,1.3-.7,1.9-1.1.6-.4,1.3-.7,2-1.1,1.3-.8,2.6-1.5,3.9-2.3,1.4-.8,2.8-1.7,4.2-2.6,3.2-2,6.5-4.1,9.8-6.4,53.1-35.9,85.3-80.5,103.6-112.1-23.1.5-46.2.9-69.3,1.4,9.8-13,23.3-32.5,36.9-57.8,14.8-27.4,22.2-41.4,22.5-56.5.7-40.5-43.2-70.8-55.9-79,8.5,1,20.9,3.3,34.8,9.1,12.5,5.3,27,11.4,37.3,25,16,21.3,11.9,48,10.5,55.4,17.6,10.1,35.2,20.1,52.9,30.2Z"/>
          <path class="cls-2" d="M281.7,194.6c-61.5,67.6-108.2,115.3-111.2,117.1-2.1,1.3-4.2,2.6-4.2,2.6-1.6.9-2.7,1.6-3.9,2.3-.7.4-1.3.8-2,1.1-.6.4-1.3.7-1.9,1.1-18.2,10.3-35.4,17.7-50.5,23.1-16.2,4.4-35.1,8.5-56.5,11C32.5,355.3,15.2,355.9,0,355.7c19.8-4.1,52.6-13.5,86.7-37.1,31.8-22,51.6-47.2,62.5-63.6-23.4.3-46.8.6-70.2.9l71.2-76.1h0c4.9-5.1,12.1-12.8,20.5-22.4,21-24.1,31.5-36.1,40.1-52.1,10.2-19,24-44.7,13.9-66.8-7.2-15.7-25.4-27.4-27.3-28.7-5.5-3.5-10.6-5.7-14.2-7.1C190.2.6,196.1.1,199.7,0c6.4.5,12.8,1,19.2,1.5,29.8,12.3,39.8,29.1,43.5,37.3,14.1,31.3-4,69.1-26.9,117.1-7.9,16.6-15.5,29.9-20.9,38.7,22.4,0,44.7,0,67.1-.1h0Z"/>
          <path class="cls-4" d="M66.4,256.4c-.2.1-.3.3-.5.4h0c.2-.1.4-.3.5-.4Z"/>
          <path class="cls-7" d="M284.6,192.5c-16.5,29-44.1,68.4-88.9,102.7-16.9,13-46.4,35.1-91.5,49.2C60.8,357.9,23.1,357.6,0,355.7c34.4-1.8,137.2-11.8,205.6-91.5,13.5-15.8,23.8-32,31.7-47.7-22.3.3-44.6.5-66.9.8,35.6-41.4,58.5-78.6,73-105.5,11.6-21.6,18.1-37.1,15.3-55.6-4.5-29.9-30.4-48.4-40.9-55.1,0,0,0,0,0,0h0s1.1.4,1.1.4c.5.2,12.8,4.7,22.8,11.9,1.9,1.4,20.5,14.9,28.9,32.3,21.9,45-26.3,110.3-43.7,134-4.7,6.4-8.8,11.4-11.6,14.7,23-.6,46.1-1.2,69.1-1.9h0Z"/>
        </g>
      </g>
      <path class="cls-5" d="M210,508"/>
    </g>
  </g>
</svg>